п»ҝ<?xml version="1.0" encoding="UTF-8"?>
<!--
  g-icons.svg ??зҳһи©Ё??пҗЈйЈӣ ERP ?жўҒоң… SVG Icon Sprite
  йӣҝиј»оң…?еӯө?еҡ—пҢӢTMLеҡ—пҗӯ?
    <svg class="w-5 h-5"><use href="/images/g-icons.svg#icon-save"/></svg>
  =====================================================================
  ?пүҗ?еҡ—?
    ?пҡ–?жҶҝ? : save, edit, trash, plus, close, check, refresh, search
    ж’ оҺ—жұ—жҶҝ? : home, back, forward, arrow-up, arrow-down, arrow-left, arrow-right
    ?пӢЁиҫЈжҶҝ? : document, documents, file, file-csv, file-pdf, upload, download, print, attach
    йһҲпӢӘ?жҶҝ? : database, table, datagrid, tree, list, filter, sort, export, import
    йҠөе…ёоЎ…жҶҝ? : form, textbox, combobox, datebox, numberbox, searchbox, slider, rating, checkbox, radio, toggle, filebox, tagbox, spinner
    ?пҺҠоІ„жҶҝ? : layout, panel, tabs, accordion, drawer, timeline, window, dialog
    ?и©ЁоЎ…жҶҝ? : menu, sidemenu, menubutton, splitbutton
    иқҹйӨҢзөһжҶҝ? : user, users, lock, shield, settings, calendar, clock, notification, email, phone
    ?ВҖ?п•Ў?  : success, error, warning, info, loading, empty, chart, dashboard, analytics
    ERPжҶҝ?  : hrm, idm, mis, scm, crm, finance, production, logistics, optic-lens, glasses, quality
  =====================================================================
-->
<svg xmlns="http://www.w3.org/2000/svg" style="display:none">

  <!-- ========== ?пҡ–?жҶҝ?========== -->
  <symbol id="icon-save" viewBox="0 0 24 24" fill="none" stroke="currentColor" stroke-width="2" stroke-linecap="round" stroke-linejoin="round">
    <path d="M8 7H5a2 2 0 00-2 2v9a2 2 0 002 2h14a2 2 0 002-2V9a2 2 0 00-2-2h-3m-1 4l-3 3m0 0l-3-3m3 3V4"/>
  </symbol>

  <symbol id="icon-edit" viewBox="0 0 24 24" fill="none" stroke="currentColor" stroke-width="2" stroke-linecap="round" stroke-linejoin="round">
    <path d="M11 5H6a2 2 0 00-2 2v11a2 2 0 002 2h11a2 2 0 002-2v-5m-1.414-9.414a2 2 0 112.828 2.828L11.828 15H9v-2.828l8.586-8.586z"/>
  </symbol>

  <symbol id="icon-trash" viewBox="0 0 24 24" fill="none" stroke="currentColor" stroke-width="2" stroke-linecap="round" stroke-linejoin="round">
    <path d="M19 7l-.867 12.142A2 2 0 0116.138 21H7.862a2 2 0 01-1.995-1.858L5 7m5 4v6m4-6v6m1-10V4a1 1 0 00-1-1h-4a1 1 0 00-1 1v3M4 7h16"/>
  </symbol>

  <symbol id="icon-plus" viewBox="0 0 24 24" fill="none" stroke="currentColor" stroke-width="2" stroke-linecap="round" stroke-linejoin="round">
    <path d="M12 4v16m8-8H4"/>
  </symbol>

  <symbol id="icon-close" viewBox="0 0 24 24" fill="none" stroke="currentColor" stroke-width="2" stroke-linecap="round" stroke-linejoin="round">
    <path d="M6 18L18 6M6 6l12 12"/>
  </symbol>

  <symbol id="icon-check" viewBox="0 0 24 24" fill="none" stroke="currentColor" stroke-width="2" stroke-linecap="round" stroke-linejoin="round">
    <path d="M5 13l4 4L19 7"/>
  </symbol>

  <symbol id="icon-check-circle" viewBox="0 0 24 24" fill="none" stroke="currentColor" stroke-width="2" stroke-linecap="round" stroke-linejoin="round">
    <path d="M9 12l2 2 4-4m6 2a9 9 0 11-18 0 9 9 0 0118 0z"/>
  </symbol>

  <symbol id="icon-refresh" viewBox="0 0 24 24" fill="none" stroke="currentColor" stroke-width="2" stroke-linecap="round" stroke-linejoin="round">
    <path d="M4 4v5h.582m15.356 2A8.001 8.001 0 004.582 9m0 0H9m11 11v-5h-.581m0 0a8.003 8.003 0 01-15.357-2m15.357 2H15"/>
  </symbol>

  <symbol id="icon-search" viewBox="0 0 24 24" fill="none" stroke="currentColor" stroke-width="2" stroke-linecap="round" stroke-linejoin="round">
    <path d="M21 21l-6-6m2-5a7 7 0 11-14 0 7 7 0 0114 0z"/>
  </symbol>

  <symbol id="icon-copy" viewBox="0 0 24 24" fill="none" stroke="currentColor" stroke-width="2" stroke-linecap="round" stroke-linejoin="round">
    <rect x="9" y="9" width="13" height="13" rx="2" ry="2"/>
    <path d="M5 15H4a2 2 0 01-2-2V4a2 2 0 012-2h9a2 2 0 012 2v1"/>
  </symbol>

  <!-- ========== ж’ оҺ—жұ—жҶҝ?========== -->
  <symbol id="icon-home" viewBox="0 0 24 24" fill="none" stroke="currentColor" stroke-width="2" stroke-linecap="round" stroke-linejoin="round">
    <path d="M3 12l2-2m0 0l7-7 7 7M5 10v10a1 1 0 001 1h3m10-11l2 2m-2-2v10a1 1 0 01-1 1h-3m-6 0a1 1 0 001-1v-4a1 1 0 011-1h2a1 1 0 011 1v4a1 1 0 001 1m-6 0h6"/>
  </symbol>

  <symbol id="icon-back" viewBox="0 0 24 24" fill="none" stroke="currentColor" stroke-width="2" stroke-linecap="round" stroke-linejoin="round">
    <path d="M10 19l-7-7m0 0l7-7m-7 7h18"/>
  </symbol>

  <symbol id="icon-forward" viewBox="0 0 24 24" fill="none" stroke="currentColor" stroke-width="2" stroke-linecap="round" stroke-linejoin="round">
    <path d="M14 5l7 7m0 0l-7 7m7-7H3"/>
  </symbol>

  <symbol id="icon-arrow-up" viewBox="0 0 24 24" fill="none" stroke="currentColor" stroke-width="2" stroke-linecap="round" stroke-linejoin="round">
    <path d="M5 15l7-7 7 7"/>
  </symbol>

  <symbol id="icon-arrow-down" viewBox="0 0 24 24" fill="none" stroke="currentColor" stroke-width="2" stroke-linecap="round" stroke-linejoin="round">
    <path d="M19 9l-7 7-7-7"/>
  </symbol>

  <symbol id="icon-expand" viewBox="0 0 24 24" fill="none" stroke="currentColor" stroke-width="2" stroke-linecap="round" stroke-linejoin="round">
    <path d="M4 8V4m0 0h4M4 4l5 5m11-1V4m0 0h-4m4 0l-5 5M4 16v4m0 0h4m-4 0l5-5m11 5l-5-5m5 5v-4m0 4h-4"/>
  </symbol>

  <symbol id="icon-collapse" viewBox="0 0 24 24" fill="none" stroke="currentColor" stroke-width="2" stroke-linecap="round" stroke-linejoin="round">
    <path d="M9 9L4 4m0 0v4m0-4h4m12 12l-5-5m5 5v-4m0 4h-4M9 15l-5 5m0 0v-4m0 4h4m11-11l-5 5m5-5v4m0-4h-4"/>
  </symbol>

  <!-- ========== ?пӢЁиҫЈжҶҝ?========== -->
  <symbol id="icon-document" viewBox="0 0 24 24" fill="none" stroke="currentColor" stroke-width="2" stroke-linecap="round" stroke-linejoin="round">
    <path d="M9 12h6m-6 4h6m2 5H7a2 2 0 01-2-2V5a2 2 0 012-2h5.586a1 1 0 01.707.293l5.414 5.414a1 1 0 01.293.707V19a2 2 0 01-2 2z"/>
  </symbol>

  <symbol id="icon-documents" viewBox="0 0 24 24" fill="none" stroke="currentColor" stroke-width="2" stroke-linecap="round" stroke-linejoin="round">
    <path d="M8 7v8a2 2 0 002 2h6M8 7V5a2 2 0 012-2h4.586a1 1 0 01.707.293l4.414 4.414a1 1 0 01.293.707V15a2 2 0 01-2 2h-2M8 7H6a2 2 0 00-2 2v10a2 2 0 002 2h8a2 2 0 002-2v-2"/>
  </symbol>

  <symbol id="icon-upload" viewBox="0 0 24 24" fill="none" stroke="currentColor" stroke-width="2" stroke-linecap="round" stroke-linejoin="round">
    <path d="M4 16v1a3 3 0 003 3h10a3 3 0 003-3v-1m-4-8l-4-4m0 0L8 8m4-4v12"/>
  </symbol>

  <symbol id="icon-download" viewBox="0 0 24 24" fill="none" stroke="currentColor" stroke-width="2" stroke-linecap="round" stroke-linejoin="round">
    <path d="M4 16v1a3 3 0 003 3h10a3 3 0 003-3v-1m-4-4l-4 4m0 0l-4-4m4 4V4"/>
  </symbol>

  <symbol id="icon-print" viewBox="0 0 24 24" fill="none" stroke="currentColor" stroke-width="2" stroke-linecap="round" stroke-linejoin="round">
    <path d="M17 17h2a2 2 0 002-2v-4a2 2 0 00-2-2H5a2 2 0 00-2 2v4a2 2 0 002 2h2m2 4h6a2 2 0 002-2v-4a2 2 0 00-2-2H9a2 2 0 00-2 2v4a2 2 0 002 2zm8-12V5a2 2 0 00-2-2H9a2 2 0 00-2 2v4h10z"/>
  </symbol>

  <symbol id="icon-attach" viewBox="0 0 24 24" fill="none" stroke="currentColor" stroke-width="2" stroke-linecap="round" stroke-linejoin="round">
    <path d="M15.172 7l-6.586 6.586a2 2 0 102.828 2.828l6.414-6.586a4 4 0 00-5.656-5.656l-6.415 6.585a6 6 0 108.486 8.486L20.5 13"/>
  </symbol>

  <symbol id="icon-export" viewBox="0 0 24 24" fill="none" stroke="currentColor" stroke-width="2" stroke-linecap="round" stroke-linejoin="round">
    <path d="M12 10v6m0 0l-3-3m3 3l3-3m2 8H7a2 2 0 01-2-2V5a2 2 0 012-2h5.586a1 1 0 01.707.293l5.414 5.414a1 1 0 01.293.707V19a2 2 0 01-2 2z"/>
  </symbol>

  <!-- ========== йһҲпӢӘ?жҶҝ?========== -->
  <symbol id="icon-database" viewBox="0 0 24 24" fill="none" stroke="currentColor" stroke-width="2" stroke-linecap="round" stroke-linejoin="round">
    <path d="M4 7v10c0 2.21 3.582 4 8 4s8-1.79 8-4V7M4 7c0 2.21 3.582 4 8 4s8-1.79 8-4M4 7c0-2.21 3.582-4 8-4s8 1.79 8 4m0 5c0 2.21-3.582 4-8 4s-8-1.79-8-4"/>
  </symbol>

  <symbol id="icon-table" viewBox="0 0 24 24" fill="none" stroke="currentColor" stroke-width="2" stroke-linecap="round" stroke-linejoin="round">
    <path d="M3 10h18M3 14h18m-9-4v8m-7 0h14a2 2 0 002-2V8a2 2 0 00-2-2H5a2 2 0 00-2 2v8a2 2 0 002 2z"/>
  </symbol>

  <symbol id="icon-list" viewBox="0 0 24 24" fill="none" stroke="currentColor" stroke-width="2" stroke-linecap="round" stroke-linejoin="round">
    <path d="M4 6h16M4 10h16M4 14h16M4 18h16"/>
  </symbol>

  <symbol id="icon-filter" viewBox="0 0 24 24" fill="none" stroke="currentColor" stroke-width="2" stroke-linecap="round" stroke-linejoin="round">
    <path d="M3 4a1 1 0 011-1h16a1 1 0 011 1v2.586a1 1 0 01-.293.707l-6.414 6.414a1 1 0 00-.293.707V17l-4 4v-6.586a1 1 0 00-.293-.707L3.293 7.293A1 1 0 013 6.586V4z"/>
  </symbol>

  <symbol id="icon-sort" viewBox="0 0 24 24" fill="none" stroke="currentColor" stroke-width="2" stroke-linecap="round" stroke-linejoin="round">
    <path d="M7 16V4m0 0L3 8m4-4l4 4m6 0v12m0 0l4-4m-4 4l-4-4"/>
  </symbol>

  <symbol id="icon-tree" viewBox="0 0 24 24" fill="none" stroke="currentColor" stroke-width="2" stroke-linecap="round" stroke-linejoin="round">
    <path d="M3 7a4 4 0 008 0M3 7a4 4 0 014-4m-4 4h8m5 10V9m0 8a4 4 0 010-8m0 8h-3"/>
    <circle cx="16" cy="17" r="0"/>
  </symbol>

  <!-- ========== йҠөе…ёоЎ…жҶҝ?========== -->
  <symbol id="icon-form" viewBox="0 0 24 24" fill="none" stroke="currentColor" stroke-width="2" stroke-linecap="round" stroke-linejoin="round">
    <path d="M9 5H7a2 2 0 00-2 2v12a2 2 0 002 2h10a2 2 0 002-2V7a2 2 0 00-2-2h-2M9 5a2 2 0 002 2h2a2 2 0 002-2M9 5a2 2 0 012-2h2a2 2 0 012 2m-3 7h3m-3 4h3m-6-4h.01M9 16h.01"/>
  </symbol>

  <symbol id="icon-textbox" viewBox="0 0 24 24" fill="none" stroke="currentColor" stroke-width="2" stroke-linecap="round" stroke-linejoin="round">
    <rect x="3" y="8" width="18" height="8" rx="2"/>
    <path d="M8 12h.01M12 12h.01"/>
  </symbol>

  <symbol id="icon-combobox" viewBox="0 0 24 24" fill="none" stroke="currentColor" stroke-width="2" stroke-linecap="round" stroke-linejoin="round">
    <path d="M8 9l4-4 4 4m0 6l-4 4-4-4"/>
    <rect x="3" y="3" width="18" height="18" rx="2"/>
  </symbol>

  <symbol id="icon-datebox" viewBox="0 0 24 24" fill="none" stroke="currentColor" stroke-width="2" stroke-linecap="round" stroke-linejoin="round">
    <path d="M8 7V3m8 4V3m-9 8h10M5 21h14a2 2 0 002-2V7a2 2 0 00-2-2H5a2 2 0 00-2 2v12a2 2 0 002 2z"/>
  </symbol>

  <symbol id="icon-slider" viewBox="0 0 24 24" fill="none" stroke="currentColor" stroke-width="2" stroke-linecap="round" stroke-linejoin="round">
    <path d="M4 6h6m4 0h6M4 12H3m18 0h-1M4 18h11m3 0h2"/>
    <circle cx="10" cy="6" r="2" fill="currentColor"/>
    <circle cx="4" cy="12" r="2" fill="currentColor"/>
    <circle cx="15" cy="18" r="2" fill="currentColor"/>
  </symbol>

  <symbol id="icon-rating" viewBox="0 0 24 24" fill="none" stroke="currentColor" stroke-width="2" stroke-linecap="round" stroke-linejoin="round">
    <path d="M11.049 2.927c.3-.921 1.603-.921 1.902 0l1.519 4.674a1 1 0 00.95.69h4.915c.969 0 1.371 1.24.588 1.81l-3.976 2.888a1 1 0 00-.363 1.118l1.518 4.674c.3.922-.755 1.688-1.538 1.118l-3.976-2.888a1 1 0 00-1.176 0l-3.976 2.888c-.783.57-1.838-.197-1.538-1.118l1.518-4.674a1 1 0 00-.363-1.118l-3.976-2.888c-.784-.57-.38-1.81.588-1.81h4.914a1 1 0 00.951-.69l1.519-4.674z"/>
  </symbol>

  <symbol id="icon-checkbox" viewBox="0 0 24 24" fill="none" stroke="currentColor" stroke-width="2" stroke-linecap="round" stroke-linejoin="round">
    <rect x="3" y="3" width="18" height="18" rx="3"/>
    <path d="M9 12l2 2 4-4"/>
  </symbol>

  <symbol id="icon-radio" viewBox="0 0 24 24" fill="none" stroke="currentColor" stroke-width="2" stroke-linecap="round" stroke-linejoin="round">
    <circle cx="12" cy="12" r="9"/>
    <circle cx="12" cy="12" r="4" fill="currentColor"/>
  </symbol>

  <symbol id="icon-toggle" viewBox="0 0 24 24" fill="none" stroke="currentColor" stroke-width="2" stroke-linecap="round" stroke-linejoin="round">
    <rect x="1" y="6" width="22" height="12" rx="6"/>
    <circle cx="17" cy="12" r="4" fill="currentColor"/>
  </symbol>

  <symbol id="icon-tag" viewBox="0 0 24 24" fill="none" stroke="currentColor" stroke-width="2" stroke-linecap="round" stroke-linejoin="round">
    <path d="M7 7h.01M7 3h5c.512 0 1.024.195 1.414.586l7 7a2 2 0 010 2.828l-7 7a2 2 0 01-2.828 0l-7-7A1.994 1.994 0 013 12V7a4 4 0 014-4z"/>
  </symbol>

  <symbol id="icon-spinner" viewBox="0 0 24 24" fill="none" stroke="currentColor" stroke-width="2" stroke-linecap="round" stroke-linejoin="round">
    <path d="M12 2v4M12 18v4M4.93 4.93l2.83 2.83M16.24 16.24l2.83 2.83M2 12h4M18 12h4M4.93 19.07l2.83-2.83M16.24 7.76l2.83-2.83"/>
  </symbol>

  <!-- ========== ?пҺҠоІ„жҶҝ?========== -->
  <symbol id="icon-layout" viewBox="0 0 24 24" fill="none" stroke="currentColor" stroke-width="2" stroke-linecap="round" stroke-linejoin="round">
    <rect x="3" y="3" width="18" height="18" rx="2"/>
    <path d="M3 9h18M9 21V9"/>
  </symbol>

  <symbol id="icon-panel" viewBox="0 0 24 24" fill="none" stroke="currentColor" stroke-width="2" stroke-linecap="round" stroke-linejoin="round">
    <rect x="3" y="3" width="18" height="18" rx="2"/>
    <path d="M3 9h18"/>
  </symbol>

  <symbol id="icon-tabs" viewBox="0 0 24 24" fill="none" stroke="currentColor" stroke-width="2" stroke-linecap="round" stroke-linejoin="round">
    <path d="M4 6h4v4H4zm6 0h4v4h-4zm6 0h4v4h-4zM3 14h18v6H3z"/>
  </symbol>

  <symbol id="icon-accordion" viewBox="0 0 24 24" fill="none" stroke="currentColor" stroke-width="2" stroke-linecap="round" stroke-linejoin="round">
    <path d="M3 6h18M3 10h18M15 14l-3 3-3-3M3 18h18"/>
  </symbol>

  <symbol id="icon-drawer" viewBox="0 0 24 24" fill="none" stroke="currentColor" stroke-width="2" stroke-linecap="round" stroke-linejoin="round">
    <rect x="3" y="3" width="18" height="18" rx="2"/>
    <path d="M15 3v18"/>
  </symbol>

  <symbol id="icon-timeline" viewBox="0 0 24 24" fill="none" stroke="currentColor" stroke-width="2" stroke-linecap="round" stroke-linejoin="round">
    <circle cx="12" cy="5" r="2"/>
    <circle cx="12" cy="12" r="2"/>
    <circle cx="12" cy="19" r="2"/>
    <path d="M12 7v3m0 2v3M7 5h4m-4 7h4m-4 7h4"/>
  </symbol>

  <symbol id="icon-window" viewBox="0 0 24 24" fill="none" stroke="currentColor" stroke-width="2" stroke-linecap="round" stroke-linejoin="round">
    <rect x="3" y="3" width="18" height="18" rx="2"/>
    <path d="M3 9h18M9 9v12M7 6h.01M11 6h.01M15 6h.01"/>
  </symbol>

  <symbol id="icon-dialog" viewBox="0 0 24 24" fill="none" stroke="currentColor" stroke-width="2" stroke-linecap="round" stroke-linejoin="round">
    <path d="M8 10h.01M12 10h.01M16 10h.01M9 16H5a2 2 0 01-2-2V6a2 2 0 012-2h14a2 2 0 012 2v8a2 2 0 01-2 2h-5l-3 3v-3z"/>
  </symbol>

  <symbol id="icon-modal" viewBox="0 0 24 24" fill="none" stroke="currentColor" stroke-width="2" stroke-linecap="round" stroke-linejoin="round">
    <path d="M4 5a2 2 0 012-2h12a2 2 0 012 2v14a2 2 0 01-2 2H6a2 2 0 01-2-2V5z"/>
    <path d="M8 9h8M8 13h5"/>
  </symbol>

  <!-- ========== ?и©ЁоЎ…жҶҝ?========== -->
  <symbol id="icon-menu" viewBox="0 0 24 24" fill="none" stroke="currentColor" stroke-width="2" stroke-linecap="round" stroke-linejoin="round">
    <path d="M4 6h16M4 12h16M4 18h16"/>
  </symbol>

  <symbol id="icon-menu-dots" viewBox="0 0 24 24" fill="none" stroke="currentColor" stroke-width="2" stroke-linecap="round" stroke-linejoin="round">
    <circle cx="12" cy="5" r="1" fill="currentColor"/>
    <circle cx="12" cy="12" r="1" fill="currentColor"/>
    <circle cx="12" cy="19" r="1" fill="currentColor"/>
  </symbol>

  <symbol id="icon-menu-dots-h" viewBox="0 0 24 24" fill="none" stroke="currentColor" stroke-width="2" stroke-linecap="round" stroke-linejoin="round">
    <circle cx="5" cy="12" r="1" fill="currentColor"/>
    <circle cx="12" cy="12" r="1" fill="currentColor"/>
    <circle cx="19" cy="12" r="1" fill="currentColor"/>
  </symbol>

  <!-- ========== иқҹйӨҢзөһжҶҝ?========== -->
  <symbol id="icon-user" viewBox="0 0 24 24" fill="none" stroke="currentColor" stroke-width="2" stroke-linecap="round" stroke-linejoin="round">
    <path d="M16 7a4 4 0 11-8 0 4 4 0 018 0zM12 14a7 7 0 00-7 7h14a7 7 0 00-7-7z"/>
  </symbol>

  <symbol id="icon-users" viewBox="0 0 24 24" fill="none" stroke="currentColor" stroke-width="2" stroke-linecap="round" stroke-linejoin="round">
    <path d="M17 21v-2a4 4 0 00-4-4H5a4 4 0 00-4 4v2M9 11a4 4 0 100-8 4 4 0 000 8zm14 10v-2a4 4 0 00-3-3.87M16 3.13a4 4 0 010 7.75"/>
  </symbol>

  <symbol id="icon-lock" viewBox="0 0 24 24" fill="none" stroke="currentColor" stroke-width="2" stroke-linecap="round" stroke-linejoin="round">
    <rect x="5" y="11" width="14" height="11" rx="2"/>
    <path d="M7 11V7a5 5 0 0110 0v4"/>
  </symbol>

  <symbol id="icon-shield" viewBox="0 0 24 24" fill="none" stroke="currentColor" stroke-width="2" stroke-linecap="round" stroke-linejoin="round">
    <path d="M9 12l2 2 4-4m5.618-4.016A11.955 11.955 0 0112 2.944a11.955 11.955 0 01-8.618 3.04A12.02 12.02 0 003 9c0 5.591 3.824 10.29 9 11.622 5.176-1.332 9-6.03 9-11.622 0-1.042-.133-2.052-.382-3.016z"/>
  </symbol>

  <symbol id="icon-settings" viewBox="0 0 24 24" fill="none" stroke="currentColor" stroke-width="2" stroke-linecap="round" stroke-linejoin="round">
    <path d="M10.325 4.317c.426-1.756 2.924-1.756 3.35 0a1.724 1.724 0 002.573 1.066c1.543-.94 3.31.826 2.37 2.37a1.724 1.724 0 001.065 2.572c1.756.426 1.756 2.924 0 3.35a1.724 1.724 0 00-1.066 2.573c.94 1.543-.826 3.31-2.37 2.37a1.724 1.724 0 00-2.572 1.065c-.426 1.756-2.924 1.756-3.35 0a1.724 1.724 0 00-2.573-1.066c-1.543.94-3.31-.826-2.37-2.37a1.724 1.724 0 00-1.065-2.572c-1.756-.426-1.756-2.924 0-3.35a1.724 1.724 0 001.066-2.573c-.94-1.543.826-3.31 2.37-2.37.996.608 2.296.07 2.572-1.065z"/>
    <circle cx="12" cy="12" r="3"/>
  </symbol>

  <symbol id="icon-bell" viewBox="0 0 24 24" fill="none" stroke="currentColor" stroke-width="2" stroke-linecap="round" stroke-linejoin="round">
    <path d="M15 17h5l-1.405-1.405A2.032 2.032 0 0118 14.158V11a6.002 6.002 0 00-4-5.659V5a2 2 0 10-4 0v.341C7.67 6.165 6 8.388 6 11v3.159c0 .538-.214 1.055-.595 1.436L4 17h5m6 0v1a3 3 0 11-6 0v-1m6 0H9"/>
  </symbol>

  <symbol id="icon-email" viewBox="0 0 24 24" fill="none" stroke="currentColor" stroke-width="2" stroke-linecap="round" stroke-linejoin="round">
    <path d="M3 8l7.89 5.26a2 2 0 002.22 0L21 8M5 19h14a2 2 0 002-2V7a2 2 0 00-2-2H5a2 2 0 00-2 2v10a2 2 0 002 2z"/>
  </symbol>

  <symbol id="icon-phone" viewBox="0 0 24 24" fill="none" stroke="currentColor" stroke-width="2" stroke-linecap="round" stroke-linejoin="round">
    <path d="M3 5a2 2 0 012-2h3.28a1 1 0 01.948.684l1.498 4.493a1 1 0 01-.502 1.21l-2.257 1.13a11.042 11.042 0 005.516 5.516l1.13-2.257a1 1 0 011.21-.502l4.493 1.498a1 1 0 01.684.949V19a2 2 0 01-2 2h-1C9.716 21 3 14.284 3 6V5z"/>
  </symbol>

  <!-- ========== ?ВҖ?п•Ў? ========== -->
  <symbol id="icon-success" viewBox="0 0 24 24" fill="none" stroke="currentColor" stroke-width="2" stroke-linecap="round" stroke-linejoin="round">
    <path d="M9 12l2 2 4-4m6 2a9 9 0 11-18 0 9 9 0 0118 0z"/>
  </symbol>

  <symbol id="icon-error" viewBox="0 0 24 24" fill="none" stroke="currentColor" stroke-width="2" stroke-linecap="round" stroke-linejoin="round">
    <path d="M10 14l2-2m0 0l2-2m-2 2l-2-2m2 2l2 2m7-2a9 9 0 11-18 0 9 9 0 0118 0z"/>
  </symbol>

  <symbol id="icon-warning" viewBox="0 0 24 24" fill="none" stroke="currentColor" stroke-width="2" stroke-linecap="round" stroke-linejoin="round">
    <path d="M12 9v2m0 4h.01m-6.938 4h13.856c1.54 0 2.502-1.667 1.732-3L13.732 4c-.77-1.333-2.694-1.333-3.464 0L3.34 16c-.77 1.333.192 3 1.732 3z"/>
  </symbol>

  <symbol id="icon-info" viewBox="0 0 24 24" fill="none" stroke="currentColor" stroke-width="2" stroke-linecap="round" stroke-linejoin="round">
    <path d="M13 16h-1v-4h-1m1-4h.01M21 12a9 9 0 11-18 0 9 9 0 0118 0z"/>
  </symbol>

  <symbol id="icon-loading" viewBox="0 0 24 24" fill="none" stroke="currentColor" stroke-width="2">
    <circle class="opacity-25" cx="12" cy="12" r="10"/>
    <path class="opacity-75" d="M4 12a8 8 0 018-8V0C5.373 0 0 5.373 0 12h4z" fill="currentColor"/>
  </symbol>

  <symbol id="icon-empty" viewBox="0 0 24 24" fill="none" stroke="currentColor" stroke-width="2" stroke-linecap="round" stroke-linejoin="round">
    <path d="M9 17H5a2 2 0 01-2-2V5a2 2 0 012-2h11l4 4v10a2 2 0 01-2 2h-1"/>
    <path d="M12 12v5m0 0l-2-2m2 2l2-2"/>
  </symbol>

  <symbol id="icon-chart" viewBox="0 0 24 24" fill="none" stroke="currentColor" stroke-width="2" stroke-linecap="round" stroke-linejoin="round">
    <path d="M9 19v-6a2 2 0 00-2-2H5a2 2 0 00-2 2v6a2 2 0 002 2h2a2 2 0 002-2zm0 0V9a2 2 0 012-2h2a2 2 0 012 2v10m-6 0a2 2 0 002 2h2a2 2 0 002-2m0 0V5a2 2 0 012-2h2a2 2 0 012 2v14a2 2 0 01-2 2h-2a2 2 0 01-2-2z"/>
  </symbol>

  <symbol id="icon-dashboard" viewBox="0 0 24 24" fill="none" stroke="currentColor" stroke-width="2" stroke-linecap="round" stroke-linejoin="round">
    <rect x="3" y="3" width="7" height="7" rx="1"/>
    <rect x="14" y="3" width="7" height="7" rx="1"/>
    <rect x="14" y="14" width="7" height="7" rx="1"/>
    <rect x="3" y="14" width="7" height="7" rx="1"/>
  </symbol>

  <symbol id="icon-eye" viewBox="0 0 24 24" fill="none" stroke="currentColor" stroke-width="2" stroke-linecap="round" stroke-linejoin="round">
    <path d="M15 12a3 3 0 11-6 0 3 3 0 016 0z"/>
    <path d="M2.458 12C3.732 7.943 7.523 5 12 5c4.478 0 8.268 2.943 9.542 7-1.274 4.057-5.064 7-9.542 7-4.477 0-8.268-2.943-9.542-7z"/>
  </symbol>

  <symbol id="icon-eye-off" viewBox="0 0 24 24" fill="none" stroke="currentColor" stroke-width="2" stroke-linecap="round" stroke-linejoin="round">
    <path d="M17.94 17.94A10.07 10.07 0 0112 20c-7 0-11-8-11-8a18.45 18.45 0 015.06-5.94M9.9 4.24A9.12 9.12 0 0112 4c7 0 11 8 11 8a18.5 18.5 0 01-2.16 3.19m-6.72-1.07a3 3 0 11-4.24-4.24M1 1l22 22"/>
  </symbol>

  <!-- ========== ERP з’Ҷеү–?жҶҝ?========== -->
  <symbol id="icon-hrm" viewBox="0 0 24 24" fill="none" stroke="currentColor" stroke-width="2" stroke-linecap="round" stroke-linejoin="round">
    <path d="M17 21v-2a4 4 0 00-4-4H5a4 4 0 00-4 4v2M9 11a4 4 0 100-8 4 4 0 000 8zm7 0a2 2 0 100-4 2 2 0 000 4z"/>
  </symbol>

  <symbol id="icon-mis" viewBox="0 0 24 24" fill="none" stroke="currentColor" stroke-width="2" stroke-linecap="round" stroke-linejoin="round">
    <path d="M9 3H5a2 2 0 00-2 2v4m6-6h10a2 2 0 012 2v4M9 3v18m0 0h10a2 2 0 002-2V9M9 21H5a2 2 0 01-2-2V9m0 0h18"/>
  </symbol>

  <symbol id="icon-idm" viewBox="0 0 24 24" fill="none" stroke="currentColor" stroke-width="2" stroke-linecap="round" stroke-linejoin="round">
    <rect x="3" y="4" width="18" height="16" rx="2"/>
    <circle cx="9" cy="10" r="2"/>
    <path d="M15 8h2M15 12h2M7 16h10"/>
  </symbol>

  <symbol id="icon-production" viewBox="0 0 24 24" fill="none" stroke="currentColor" stroke-width="2" stroke-linecap="round" stroke-linejoin="round">
    <path d="M10.325 4.317c.426-1.756 2.924-1.756 3.35 0a1.724 1.724 0 002.573 1.066c1.543-.94 3.31.826 2.37 2.37a1.724 1.724 0 001.065 2.572c1.756.426 1.756 2.924 0 3.35a1.724 1.724 0 00-1.066 2.573c.94 1.543-.826 3.31-2.37 2.37a1.724 1.724 0 00-2.572 1.065c-.426 1.756-2.924 1.756-3.35 0a1.724 1.724 0 00-2.573-1.066c-1.543.94-3.31-.826-2.37-2.37a1.724 1.724 0 00-1.065-2.572c-1.756-.426-1.756-2.924 0-3.35a1.724 1.724 0 001.066-2.573c-.94-1.543.826-3.31 2.37-2.37.996.608 2.296.07 2.572-1.065z"/>
    <circle cx="12" cy="12" r="3"/>
  </symbol>

  <symbol id="icon-quality" viewBox="0 0 24 24" fill="none" stroke="currentColor" stroke-width="2" stroke-linecap="round" stroke-linejoin="round">
    <path d="M9 12l2 2 4-4M7.835 4.697a3.42 3.42 0 001.946-.806 3.42 3.42 0 014.438 0 3.42 3.42 0 001.946.806 3.42 3.42 0 013.138 3.138 3.42 3.42 0 00.806 1.946 3.42 3.42 0 010 4.438 3.42 3.42 0 00-.806 1.946 3.42 3.42 0 01-3.138 3.138 3.42 3.42 0 00-1.946.806 3.42 3.42 0 01-4.438 0 3.42 3.42 0 00-1.946-.806 3.42 3.42 0 01-3.138-3.138 3.42 3.42 0 00-.806-1.946 3.42 3.42 0 010-4.438 3.42 3.42 0 00.806-1.946 3.42 3.42 0 013.138-3.138z"/>
  </symbol>

  <symbol id="icon-glasses" viewBox="0 0 24 24" fill="none" stroke="currentColor" stroke-width="2" stroke-linecap="round" stroke-linejoin="round">
    <path d="M2 12h4m12 0h4M6 12a4 4 0 108 0M14 12a4 4 0 108 0M10 12h4"/>
  </symbol>

  <symbol id="icon-lens" viewBox="0 0 24 24" fill="none" stroke="currentColor" stroke-width="2" stroke-linecap="round" stroke-linejoin="round">
    <circle cx="12" cy="12" r="9"/>
    <circle cx="12" cy="12" r="4"/>
    <path d="M12 3v2m0 14v2M3 12h2m14 0h2"/>
  </symbol>

  <symbol id="icon-logistics" viewBox="0 0 24 24" fill="none" stroke="currentColor" stroke-width="2" stroke-linecap="round" stroke-linejoin="round">
    <path d="M5 17H3a2 2 0 01-2-2V5a2 2 0 012-2h11a2 2 0 012 2v3M9 17h6M9 17a2 2 0 11-4 0 2 2 0 014 0zm10 0a2 2 0 11-4 0 2 2 0 014 0z"/>
    <path d="M14 17h2a2 2 0 002-2v-5l-3-4h-2"/>
  </symbol>

  <symbol id="icon-play" viewBox="0 0 24 24" fill="currentColor" viewBox="0 0 24 24">
    <path d="M8 5v14l11-7z"/>
  </symbol>

</svg>

